<?xml version="1.0" standalone="no"?>
<!DOCTYPE svg PUBLIC "-//W3C//DTD SVG 20010904//EN"
 "http://www.w3.org/TR/2001/REC-SVG-20010904/DTD/svg10.dtd">
<svg version="1.0" xmlns="http://www.w3.org/2000/svg"
 width="500.000000pt" height="489.000000pt" viewBox="0 0 500.000000 489.000000"
 preserveAspectRatio="xMidYMid meet">
<metadata>
Created by potrace 1.12, written by Peter Selinger 2001-2015
</metadata>

<g transform="translate(0.000000,489.000000) scale(0.100000,-0.100000)"
fill="#d62e46" stroke="none">
<path d="M2170 4187 c-3 -3 -37 -7 -75 -8 -39 -2 -74 -5 -79 -7 -5 -3 16 -15
47 -27 166 -68 268 -184 343 -392 35 -97 76 -262 88 -358 4 -27 9 -61 11 -75
7 -42 18 -146 30 -280 5 -53 5 -655 0 -740 -10 -173 -16 -278 -20 -325 -23
-276 -27 -319 -31 -350 -2 -16 -6 -59 -9 -95 -3 -36 -8 -72 -11 -82 -3 -9 -1
-19 4 -22 20 -12 325 110 537 216 139 69 161 81 270 148 237 145 583 414 609
474 18 41 12 547 -8 701 -3 17 -7 55 -10 85 -4 30 -8 66 -10 80 -3 14 -7 43
-11 65 -31 215 -79 395 -141 531 -49 108 -131 192 -239 246 -88 45 -278 116
-340 128 -65 12 -222 38 -270 45 -16 2 -46 6 -65 9 -19 3 -60 8 -90 11 -30 3
-75 8 -100 11 -71 8 -424 17 -430 11z"/>
<path d="M1610 4007 c-3 -2 -34 -7 -70 -11 -107 -10 -141 -17 -240 -48 -187
-60 -266 -110 -309 -196 -76 -153 -116 -348 -116 -569 l0 -131 54 -106 c87
-174 221 -300 366 -347 86 -27 194 -23 276 12 182 78 243 183 359 627 6 25 5
32 -3 29 -7 -3 -29 -12 -49 -21 -33 -14 -38 -14 -52 0 -9 8 -16 21 -16 29 0
18 88 149 141 209 85 97 179 134 199 80 6 -14 8 -29 6 -33 -2 -3 -7 -27 -11
-51 -3 -25 -24 -118 -45 -207 -105 -433 -247 -658 -508 -800 -100 -54 -198
-81 -297 -81 -151 0 -260 51 -391 182 -89 89 -141 164 -180 258 -10 27 -22 48
-25 48 -27 0 -30 -544 -5 -725 2 -16 7 -57 11 -90 8 -77 17 -141 35 -245 5
-30 12 -73 16 -95 10 -72 95 -311 132 -376 43 -74 38 -71 232 -97 71 -9 454
-8 545 1 136 15 184 21 245 32 14 3 39 7 55 10 153 25 315 66 316 79 1 6 3 20
4 31 1 11 6 52 9 90 20 202 22 222 41 465 26 335 27 881 1 1075 -3 17 -7 55
-10 85 -4 30 -8 66 -10 80 -3 14 -7 41 -10 60 -52 334 -152 552 -298 650 -56
37 -148 72 -223 85 -55 9 -170 17 -175 12z"/>
<path d="M3775 2004 c-355 -301 -771 -543 -1220 -709 -55 -21 -103 -40 -107
-44 -4 -3 -10 -28 -14 -56 -3 -27 -8 -57 -9 -66 -19 -100 -24 -185 -10 -182 6
0 57 4 115 8 58 4 119 8 135 10 17 2 55 7 85 10 60 7 112 13 150 20 14 2 43 7
65 10 23 3 52 8 65 10 14 3 52 10 85 15 33 5 106 28 162 49 251 98 325 149
400 276 38 65 128 322 138 395 3 25 8 52 10 60 6 20 20 107 30 180 3 25 8 53
11 63 9 30 -12 19 -91 -49z"/>
<path d="M2209 1185 c-6 -6 -293 -72 -344 -80 -23 -3 -50 -7 -61 -9 -12 -2
-45 -7 -74 -11 -29 -4 -61 -8 -70 -10 -37 -7 -198 -18 -235 -16 -64 3 -29 -14
65 -32 75 -15 109 -21 235 -41 17 -3 55 -8 85 -11 30 -3 69 -8 86 -10 103 -13
321 -22 328 -14 2 2 7 27 10 54 4 28 9 61 11 75 17 99 16 110 -8 110 -13 0
-26 -2 -28 -5z"/>
</g>
</svg>
